<svg height="32" width="32" xmlns="http://www.w3.org/2000/svg" viewBox="0 0 512 512" xml:space="preserve"><path style="fill:#29abe2" d="M496 264a240 240 0 1 1-480 0 240 240 0 0 1 480 0z" /><path style="fill:#c7b299" d="M153 144h23l40 16-16 48-16-8-57 24-40-24v-32l17-16h24" /><path style="fill:#0c6d95" d="M32 264A239 239 0 0 1 256 24a240 240 0 1 0 0 480h8A240 240 0 0 1 32 264z" /><path style="fill:#54bce8" d="m256 24-36 3a240 240 0 0 1 0 474l36 3a240 240 0 0 0 0-480z" /><path style="fill:#c7b299" d="m120 464 47-24v-24l-31-8h-24l-32 24zm248 8v-24l24-8 8-64-16-32-24 9h-16l-24 79h-24l-16 16-16-16h-24v-79h48l24-25-24-39 32-32h32l56-40h33v-33l-25-24 56-8s96 213-104 320z" /><path style="fill:#998675" d="m268 436 12 12 16-16h-24zm92-83 4-2-4-6-24 8h-16l-24 79h24l24-79zm112-201-23 3c10 24 66 181-57 285h-1l-23 18v14c200-107 104-320 104-320z" /><path style="fill:#fbb03b" d="M192 64c0 31-56 104-56 104S80 95 80 64a56 56 0 1 1 112 0z" /><circle style="fill:#fff" cx="135.9" cy="63.9" r="32" /><path style="fill:#fbb03b" d="M416 168c0 31-56 104-56 104s-56-73-56-104a56 56 0 1 1 112 0z" /><circle style="fill:#fff" cx="360.1" cy="167.9" r="32" /><path style="fill:#fbb03b" d="M184 312c0 31-56 104-56 104s-56-73-56-104a56 56 0 1 1 112 0z" /><circle style="fill:#fff" cx="127.9" cy="312" r="32" /><path style="fill:#c7b299" d="m256 168-8 24 8 16-8 24 32 24 16-32-16-48z" /><path d="m283 268-44-33 9-26-8-16 11-35 35 12 18 55-21 43zm-26-39 20 15 11-21-14-41-13-4-5 13 8 16-7 22z" /><path d="M431 89a246 246 0 0 0-244-63A64 64 0 0 0 72 64c0 7 3 16 7 26a246 246 0 0 0 2 349 246 246 0 0 0 350 0 246 246 0 0 0 0-350zM136 16c26 0 48 21 48 48 0 20-30 67-48 91l-21-32C91 86 88 70 88 64c0-27 21-48 48-48zm-6 157 6 8 6-8 15-21h17l32 13-11 32-11-6-56 24-33-19v-25l12-11h13l10 13zm-2 230-21-32c-24-36-27-53-27-59a48 48 0 0 1 96 0c0 21-30 67-48 91zm-6 18 6 8 6-8 3-4 23 5v13l-38 19c-10-7-20-15-29-24l20-20 9 11zm16 43 38-19v-35l-29-7c17-25 45-67 45-91a64 64 0 0 0-128 0c0 22 23 60 40 85l-22 21a231 231 0 0 1 4-312l23 38h-8l-21 21v39l47 29 57-24 21 10 21-63-49-19h-9c15-24 32-55 32-73 0-9-2-17-5-24a233 233 0 0 1 260 104h-36a64 64 0 0 0-123 24c0 21 21 56 38 81h-17l-39 38 24 40-17 17h-53v95h29l19 20 19-20h27l24-79h11l19-6 12 23-7 57-26 8v30h1a231 231 0 0 1-222-8zm295-276v21h-23l12-28 11 7zm-94 39c-24-36-27-53-27-59a48 48 0 0 1 96 0c0 20-30 67-48 91l-21-32zm81 201c-13 14-29 26-45 36v-10l24-8 9-71-20-40-29 9h-21l-24 80h-21l-13 13-13-13h-19v-64h43l31-31-24-39 25-25h22l9 12 6 8 6-8c4-4 21-27 36-53h46v-44l-24-16-1-4h41a231 231 0 0 1-44 268z" /><path d="M128 120h15v-17a40 40 0 1 0-15 0v17zm-16-56a24 24 0 1 1 48 0 24 24 0 0 1-48 0zm256 159v-16a40 40 0 1 0-16 0v16h16zm-32-55a24 24 0 1 1 48 0 24 24 0 0 1-48 0zM168 312a40 40 0 1 0-49 39v17h16v-17c19-3 33-19 33-39zm-40 24a24 24 0 1 1 0-48 24 24 0 0 1 0 48z" /></svg>